<svg width="40" height="42" viewBox="0 0 40 42" fill="none" xmlns="http://www.w3.org/2000/svg">
<g filter="url(#filter0_df_122_2049)">
<path d="M15.2 27.1328C14.87 27.1328 14.5876 26.9738 14.3528 26.6559C14.118 26.3379 14.0004 25.9552 14 25.5078V15.7578C14 15.3109 14.1176 14.9285 14.3528 14.6106C14.588 14.2926 14.8704 14.1334 15.2 14.1328H18.5477C18.7064 14.1328 18.8556 14.2081 18.9499 14.3358L19.8501 15.5548C19.9444 15.6825 20.0936 15.7578 20.2523 15.7578H24.8C25.13 15.7578 25.4126 15.9171 25.6478 16.2356C25.883 16.5541 26.0004 16.9365 26 17.3828V25.5078C26 25.9547 25.8826 26.3374 25.6478 26.6559C25.413 26.9744 25.1304 27.1334 24.8 27.1328H15.2Z" fill="url(#paint0_linear_122_2049)"/>
</g>
<g filter="url(#filter1_bd_122_2049)">
<path d="M8.25 27.1328C7.63125 27.1328 7.10175 26.9127 6.6615 26.4724C6.22125 26.0322 6.00075 25.5023 6 24.8828V11.3828C6 10.7641 6.2205 10.2346 6.6615 9.79431C7.1025 9.35406 7.632 9.13356 8.25 9.13281H14.7929C14.9255 9.13281 15.0527 9.18549 15.1464 9.27926L17.1036 11.2364C17.1973 11.3301 17.3245 11.3828 17.4571 11.3828H26.25C26.8687 11.3828 27.3986 11.6033 27.8396 12.0443C28.2806 12.4853 28.5007 13.0148 28.5 13.6328V24.8828C28.5 25.5016 28.2799 26.0314 27.8396 26.4724C27.3994 26.9134 26.8695 27.1336 26.25 27.1328H8.25Z" fill="url(#paint1_linear_122_2049)"/>
</g>
<g filter="url(#filter2_bd_122_2049)">
<path d="M13.4557 14.8176C13.6615 13.9056 14.4717 13.2578 15.4067 13.2578H32.1554C33.4668 13.2578 34.4233 14.4988 34.0895 15.767L30.7002 28.642C30.4689 29.5205 29.6745 30.1328 28.766 30.1328H12.5016C11.2194 30.1328 10.2684 28.9433 10.5506 27.6926L13.4557 14.8176Z" fill="url(#paint2_linear_122_2049)" shape-rendering="crispEdges"/>
<path d="M13.9435 14.9277C14.0978 14.2436 14.7055 13.7578 15.4067 13.7578H32.1554C33.1389 13.7578 33.8563 14.6885 33.6059 15.6397L30.2166 28.5147C30.0432 29.1736 29.4474 29.6328 28.766 29.6328H12.5016C11.5399 29.6328 10.8267 28.7407 11.0384 27.8027L13.9435 14.9277Z" stroke="url(#paint3_linear_122_2049)" shape-rendering="crispEdges"/>
</g>
<defs>
<filter id="filter0_df_122_2049" x="0" y="0.132812" width="40" height="41" filterUnits="userSpaceOnUse" color-interpolation-filters="sRGB">
<feFlood flood-opacity="0" result="BackgroundImageFix"/>
<feColorMatrix in="SourceAlpha" type="matrix" values="0 0 0 0 0 0 0 0 0 0 0 0 0 0 0 0 0 0 127 0" result="hardAlpha"/>
<feOffset dy="4"/>
<feGaussianBlur stdDeviation="2"/>
<feComposite in2="hardAlpha" operator="out"/>
<feColorMatrix type="matrix" values="0 0 0 0 0 0 0 0 0 0 0 0 0 0 0 0 0 0 0.25 0"/>
<feBlend mode="normal" in2="BackgroundImageFix" result="effect1_dropShadow_122_2049"/>
<feBlend mode="normal" in="SourceGraphic" in2="effect1_dropShadow_122_2049" result="shape"/>
<feGaussianBlur stdDeviation="7" result="effect2_foregroundBlur_122_2049"/>
</filter>
<filter id="filter1_bd_122_2049" x="2" y="5.13281" width="30.5" height="30" filterUnits="userSpaceOnUse" color-interpolation-filters="sRGB">
<feFlood flood-opacity="0" result="BackgroundImageFix"/>
<feGaussianBlur in="BackgroundImageFix" stdDeviation="2"/>
<feComposite in2="SourceAlpha" operator="in" result="effect1_backgroundBlur_122_2049"/>
<feColorMatrix in="SourceAlpha" type="matrix" values="0 0 0 0 0 0 0 0 0 0 0 0 0 0 0 0 0 0 127 0" result="hardAlpha"/>
<feOffset dy="4"/>
<feGaussianBlur stdDeviation="2"/>
<feComposite in2="hardAlpha" operator="out"/>
<feColorMatrix type="matrix" values="0 0 0 0 0 0 0 0 0 0 0 0 0 0 0 0 0 0 0.25 0"/>
<feBlend mode="normal" in2="effect1_backgroundBlur_122_2049" result="effect2_dropShadow_122_2049"/>
<feBlend mode="normal" in="SourceGraphic" in2="effect2_dropShadow_122_2049" result="shape"/>
</filter>
<filter id="filter2_bd_122_2049" x="6.50073" y="9.25781" width="31.6558" height="28.875" filterUnits="userSpaceOnUse" color-interpolation-filters="sRGB">
<feFlood flood-opacity="0" result="BackgroundImageFix"/>
<feGaussianBlur in="BackgroundImageFix" stdDeviation="2"/>
<feComposite in2="SourceAlpha" operator="in" result="effect1_backgroundBlur_122_2049"/>
<feColorMatrix in="SourceAlpha" type="matrix" values="0 0 0 0 0 0 0 0 0 0 0 0 0 0 0 0 0 0 127 0" result="hardAlpha"/>
<feOffset dy="4"/>
<feGaussianBlur stdDeviation="2"/>
<feComposite in2="hardAlpha" operator="out"/>
<feColorMatrix type="matrix" values="0 0 0 0 0 0 0 0 0 0 0 0 0 0 0 0 0 0 0.25 0"/>
<feBlend mode="normal" in2="effect1_backgroundBlur_122_2049" result="effect2_dropShadow_122_2049"/>
<feBlend mode="normal" in="SourceGraphic" in2="effect2_dropShadow_122_2049" result="shape"/>
</filter>
<linearGradient id="paint0_linear_122_2049" x1="20" y1="14.1328" x2="20" y2="27.1328" gradientUnits="userSpaceOnUse">
<stop stop-color="#FFF720"/>
<stop offset="1" stop-color="#1BA00F"/>
</linearGradient>
<linearGradient id="paint1_linear_122_2049" x1="17.25" y1="9.13281" x2="17.25" y2="27.1328" gradientUnits="userSpaceOnUse">
<stop stop-color="#FFF720"/>
<stop offset="1" stop-color="#1BA00F"/>
</linearGradient>
<linearGradient id="paint2_linear_122_2049" x1="6.2875" y1="31.8203" x2="24.6505" y2="6.05882" gradientUnits="userSpaceOnUse">
<stop stop-color="white" stop-opacity="0.2"/>
<stop offset="1" stop-color="white" stop-opacity="0.5"/>
</linearGradient>
<linearGradient id="paint3_linear_122_2049" x1="32.275" y1="31.8203" x2="18.9904" y2="8.54772" gradientUnits="userSpaceOnUse">
<stop stop-color="white" stop-opacity="0"/>
<stop offset="1" stop-color="white"/>
</linearGradient>
</defs>
</svg>
